<?xml version="1.0" encoding="UTF-8"?>
<svg id="Calque_1" xmlns="http://www.w3.org/2000/svg" version="1.1" viewBox="0 0 600 200">
  <!-- Generator: Adobe Illustrator 29.2.1, SVG Export Plug-In . SVG Version: 2.1.0 Build 116)  -->
  <defs>
    <style>
      .st0 {
        stroke: #1a1a1a;
      }

      .st0, .st1, .st2, .st3 {
        stroke-miterlimit: 10;
      }

      .st0, .st3 {
        stroke-width: .5px;
      }

      .st0, .st4 {
        fill: #ca2b1d;
      }

      .st1 {
        fill: #ca3531;
        stroke: #000;
        stroke-width: .75px;
      }

      .st5 {
        font-size: 26.88px;
      }

      .st2 {
        stroke: #8c6239;
      }

      .st2, .st3 {
        fill: none;
        opacity: .31;
      }

      .st6 {
        font-family: MS-Gothic, 'MS Gothic';
      }

      .st3 {
        stroke: #754c24;
      }

      .st7 {
        fill: #a67c52;
      }

      .st8 {
        fill: #b3b3b3;
      }

      .st9 {
        font-size: 19.2px;
      }
    </style>
  </defs>
  <path class="st4" d="M45.78,118.38c3.62,26.69,76.88,36.38,105.6,9.59,25.68-6.53,45.67,9.64,51.84,1.93,1.52-44.89-45.35-37.87-74.87-24.95-22.49,3.33-72.38-18.62-82.56,13.43Z"/>
  <path class="st7" d="M38.1,89.58c11.07-3.04,48.57,9.06,48,21.72-13.64-2.14-54.71,17.32-49.92-6.36-3.02-8.16-14.34-14.65,1.92-15.36Z"/>
  <path class="st0" d="M70.74,158.7l142.08-74.88v74.88H70.74Z"/>
  <polygon class="st1" points="433.62 104.94 228.18 24.3 228.18 104.94 433.62 104.94"/>
  <path class="st4" d="M28.5,91.5c1.51-5.02-44.34-61.31-23.04-59.51-1.48,3.66,44.65,64.14,23.04,59.51Z"/>
  <path class="st8" d="M28.5,91.5c3.26-.9,7.17-5.82,9.6-1.92-3.09,1.77-7.87,9-9.6,1.92Z"/>
  <path class="st2" d="M38.1,104.94c1.11,2.73,12.36,9.53,19.2,9.6"/>
  <path class="st2" d="M51.54,101.1c1.26,3.27,13.59,11.43,21.45,11.59"/>
  <path class="st3" d="M47.7,104.94c.99,2.23,11.6,7.76,17.61,7.75"/>
  <path class="st3" d="M61.14,103.02c1.3,2.51,16.19,8.77,23.89,8.65"/>
  <text class="st6" transform="translate(225.41 129.05)"><tspan class="st5"><tspan x="0" y="0">Camille Claudel</tspan></tspan><tspan class="st9"><tspan x="0" y="23.04">Lycée des métiers des Arts et du Design</tspan></tspan></text>
</svg>